<svg version="1.0" xmlns="http://www.w3.org/2000/svg"
     width="512.000000pt" height="512.000000pt" viewBox="0 0 512.000000 512.000000"
     preserveAspectRatio="xMidYMid meet">

    <g transform="translate(0.000000,512.000000) scale(0.100000,-0.100000)"
       fill="red" stroke="none">
        <path d="M2471 4825 c-30 -9 -76 -27 -102 -42 -59 -32 -175 -145 -222 -216
-37 -56 -255 -432 -987 -1702 -981 -1702 -1097 -1908 -1118 -1975 -90 -294 33
-511 333 -585 65 -16 202 -18 1910 -22 1037 -2 1973 0 2145 5 274 9 312 12
370 32 99 34 139 57 200 119 81 81 104 144 104 281 -1 171 27 114 -607 1215
-1264 2194 -1520 2632 -1577 2703 -123 153 -302 228 -449 187z m261 -1208 c71
-35 131 -100 171 -185 43 -93 46 -186 13 -392 -64 -388 -128 -800 -149 -965
l-23 -180 -181 -3 -181 -2 -7 67 c-15 146 -68 505 -130 870 -36 209 -65 403
-65 430 0 138 68 265 181 340 67 44 106 53 214 50 86 -2 108 -6 157 -30z m0
-2000 c69 -40 147 -122 177 -186 23 -49 26 -69 26 -156 0 -89 -3 -106 -28
-157 -37 -76 -128 -159 -204 -188 -196 -74 -403 10 -491 198 -23 49 -27 70
-27 152 1 84 4 102 29 154 38 79 128 168 197 195 45 18 72 21 164 18 100 -2
114 -5 157 -30z"/>
    </g>
</svg>
