<?xml version="1.0" standalone="no"?>
<!DOCTYPE svg PUBLIC "-//W3C//DTD SVG 20010904//EN"
 "http://www.w3.org/TR/2001/REC-SVG-20010904/DTD/svg10.dtd">
<svg version="1.0" xmlns="http://www.w3.org/2000/svg"
 width="70.000000pt" height="70.000000pt" viewBox="0 0 70.000000 70.000000"
 preserveAspectRatio="xMidYMid meet">
<metadata>
Created by potrace 1.14, written by Peter Selinger 2001-2017
</metadata>
<g transform="translate(0.000000,70.000000) scale(0.100000,-0.100000)"
fill="#000000" stroke="none">
<path d="M273 685 c-101 -23 -193 -97 -241 -195 -22 -47 -26 -68 -27 -145 0
-79 3 -97 28 -147 16 -32 48 -77 71 -100 40 -41 140 -97 151 -86 11 10 12 69
1 75 -6 4 -23 6 -38 4 -19 -2 -35 5 -50 23 -43 46 -70 87 -64 94 4 3 11 0 16
-8 6 -8 10 -11 10 -6 0 5 7 3 15 -4 8 -7 12 -16 9 -21 -3 -5 0 -9 5 -9 6 0 11
-8 11 -17 0 -15 2 -16 10 -3 8 12 10 12 10 1 0 -8 3 -11 7 -8 3 4 11 3 17 -1
6 -5 22 -3 36 4 14 8 21 14 17 14 -4 0 -3 9 3 20 9 17 6 20 -29 30 -21 5 -50
19 -64 30 -46 37 -64 139 -34 197 8 15 15 45 15 67 0 55 13 63 63 40 24 -10
54 -17 68 -15 45 7 85 7 111 1 15 -4 44 1 73 13 57 24 69 17 69 -39 0 -22 6
-51 14 -66 19 -36 18 -112 -2 -154 -20 -41 -45 -61 -97 -75 -31 -8 -37 -14
-31 -27 4 -9 9 -46 10 -82 1 -36 3 -68 3 -72 3 -25 97 22 154 77 25 25 58 71
74 102 24 51 28 69 28 148 0 78 -4 97 -27 145 -75 152 -235 231 -395 195z"/>
</g>
</svg>
